<mxfile host="app.diagrams.net" modified="2022-10-12T06:51:38.190Z" agent="5.0 (Windows NT 10.0; Win64; x64) AppleWebKit/537.36 (KHTML, like Gecko) Chrome/106.0.0.0 Safari/537.36" etag="o3PLxCENSOdXZew3_4Mr" version="20.4.0" type="github">
  <diagram id="e6LIr8iYlZ6CpA1TYbUi" name="第 1 页">
    <mxGraphModel dx="482" dy="259" grid="1" gridSize="10" guides="1" tooltips="1" connect="1" arrows="1" fold="1" page="1" pageScale="1" pageWidth="827" pageHeight="1169" math="0" shadow="0">
      <root>
        <mxCell id="0" />
        <mxCell id="1" parent="0" />
        <mxCell id="BGNOBT85ynpQFOA_O_nM-28" style="edgeStyle=orthogonalEdgeStyle;rounded=0;orthogonalLoop=1;jettySize=auto;html=1;exitX=0.5;exitY=1;exitDx=0;exitDy=0;exitPerimeter=0;" edge="1" parent="1" source="BGNOBT85ynpQFOA_O_nM-2" target="BGNOBT85ynpQFOA_O_nM-4">
          <mxGeometry relative="1" as="geometry">
            <Array as="points">
              <mxPoint x="430" y="230" />
              <mxPoint x="595" y="230" />
            </Array>
          </mxGeometry>
        </mxCell>
        <mxCell id="BGNOBT85ynpQFOA_O_nM-44" style="edgeStyle=orthogonalEdgeStyle;rounded=0;orthogonalLoop=1;jettySize=auto;html=1;exitX=0.5;exitY=1;exitDx=0;exitDy=0;exitPerimeter=0;" edge="1" parent="1" source="BGNOBT85ynpQFOA_O_nM-2" target="BGNOBT85ynpQFOA_O_nM-3">
          <mxGeometry relative="1" as="geometry">
            <Array as="points">
              <mxPoint x="430" y="230" />
              <mxPoint x="255" y="230" />
            </Array>
          </mxGeometry>
        </mxCell>
        <mxCell id="BGNOBT85ynpQFOA_O_nM-2" value="&lt;h1&gt;红外图像增强方法&lt;/h1&gt;" style="strokeWidth=2;html=1;shape=mxgraph.flowchart.terminator;whiteSpace=wrap;" vertex="1" parent="1">
          <mxGeometry x="310" y="140" width="240" height="80" as="geometry" />
        </mxCell>
        <mxCell id="BGNOBT85ynpQFOA_O_nM-24" style="edgeStyle=orthogonalEdgeStyle;rounded=0;orthogonalLoop=1;jettySize=auto;html=1;exitX=0.5;exitY=1;exitDx=0;exitDy=0;exitPerimeter=0;" edge="1" parent="1" source="BGNOBT85ynpQFOA_O_nM-3" target="BGNOBT85ynpQFOA_O_nM-12">
          <mxGeometry relative="1" as="geometry" />
        </mxCell>
        <mxCell id="BGNOBT85ynpQFOA_O_nM-25" style="edgeStyle=orthogonalEdgeStyle;rounded=0;orthogonalLoop=1;jettySize=auto;html=1;exitX=0.5;exitY=1;exitDx=0;exitDy=0;exitPerimeter=0;" edge="1" parent="1" source="BGNOBT85ynpQFOA_O_nM-3" target="BGNOBT85ynpQFOA_O_nM-16">
          <mxGeometry relative="1" as="geometry" />
        </mxCell>
        <mxCell id="BGNOBT85ynpQFOA_O_nM-26" style="edgeStyle=orthogonalEdgeStyle;rounded=0;orthogonalLoop=1;jettySize=auto;html=1;exitX=0.5;exitY=1;exitDx=0;exitDy=0;exitPerimeter=0;" edge="1" parent="1" source="BGNOBT85ynpQFOA_O_nM-3" target="BGNOBT85ynpQFOA_O_nM-13">
          <mxGeometry relative="1" as="geometry" />
        </mxCell>
        <mxCell id="BGNOBT85ynpQFOA_O_nM-27" style="edgeStyle=orthogonalEdgeStyle;rounded=0;orthogonalLoop=1;jettySize=auto;html=1;exitX=0.5;exitY=1;exitDx=0;exitDy=0;exitPerimeter=0;entryX=0.526;entryY=0.023;entryDx=0;entryDy=0;entryPerimeter=0;" edge="1" parent="1" source="BGNOBT85ynpQFOA_O_nM-3" target="BGNOBT85ynpQFOA_O_nM-21">
          <mxGeometry relative="1" as="geometry" />
        </mxCell>
        <mxCell id="BGNOBT85ynpQFOA_O_nM-3" value="&lt;h2&gt;传统图像处理&lt;/h2&gt;" style="strokeWidth=2;html=1;shape=mxgraph.flowchart.terminator;whiteSpace=wrap;" vertex="1" parent="1">
          <mxGeometry x="160" y="249" width="190" height="67" as="geometry" />
        </mxCell>
        <mxCell id="BGNOBT85ynpQFOA_O_nM-32" style="edgeStyle=orthogonalEdgeStyle;rounded=0;orthogonalLoop=1;jettySize=auto;html=1;exitX=0.5;exitY=1;exitDx=0;exitDy=0;exitPerimeter=0;entryX=0.5;entryY=0;entryDx=0;entryDy=0;entryPerimeter=0;" edge="1" parent="1" source="BGNOBT85ynpQFOA_O_nM-4" target="BGNOBT85ynpQFOA_O_nM-31">
          <mxGeometry relative="1" as="geometry" />
        </mxCell>
        <mxCell id="BGNOBT85ynpQFOA_O_nM-4" value="&lt;h2&gt;机器学习增强方法&lt;/h2&gt;" style="strokeWidth=2;html=1;shape=mxgraph.flowchart.terminator;whiteSpace=wrap;" vertex="1" parent="1">
          <mxGeometry x="500" y="246" width="190" height="70" as="geometry" />
        </mxCell>
        <mxCell id="BGNOBT85ynpQFOA_O_nM-43" style="edgeStyle=orthogonalEdgeStyle;rounded=0;orthogonalLoop=1;jettySize=auto;html=1;exitX=0.5;exitY=1;exitDx=0;exitDy=0;exitPerimeter=0;entryX=0.479;entryY=-0.053;entryDx=0;entryDy=0;entryPerimeter=0;" edge="1" parent="1" source="BGNOBT85ynpQFOA_O_nM-12" target="BGNOBT85ynpQFOA_O_nM-42">
          <mxGeometry relative="1" as="geometry" />
        </mxCell>
        <mxCell id="BGNOBT85ynpQFOA_O_nM-12" value="几何/形态变化" style="strokeWidth=2;html=1;shape=mxgraph.flowchart.terminator;whiteSpace=wrap;" vertex="1" parent="1">
          <mxGeometry x="41" y="362" width="100" height="60" as="geometry" />
        </mxCell>
        <mxCell id="BGNOBT85ynpQFOA_O_nM-39" style="edgeStyle=orthogonalEdgeStyle;rounded=0;orthogonalLoop=1;jettySize=auto;html=1;exitX=0.5;exitY=1;exitDx=0;exitDy=0;exitPerimeter=0;entryX=0.5;entryY=0;entryDx=0;entryDy=0;" edge="1" parent="1" source="BGNOBT85ynpQFOA_O_nM-13" target="BGNOBT85ynpQFOA_O_nM-38">
          <mxGeometry relative="1" as="geometry" />
        </mxCell>
        <mxCell id="BGNOBT85ynpQFOA_O_nM-13" value="像素变换" style="strokeWidth=2;html=1;shape=mxgraph.flowchart.terminator;whiteSpace=wrap;" vertex="1" parent="1">
          <mxGeometry x="260" y="362" width="100" height="60" as="geometry" />
        </mxCell>
        <mxCell id="BGNOBT85ynpQFOA_O_nM-41" style="edgeStyle=orthogonalEdgeStyle;rounded=0;orthogonalLoop=1;jettySize=auto;html=1;exitX=0.5;exitY=1;exitDx=0;exitDy=0;exitPerimeter=0;entryX=0.5;entryY=0;entryDx=0;entryDy=0;" edge="1" parent="1" source="BGNOBT85ynpQFOA_O_nM-16" target="BGNOBT85ynpQFOA_O_nM-40">
          <mxGeometry relative="1" as="geometry" />
        </mxCell>
        <mxCell id="BGNOBT85ynpQFOA_O_nM-16" value="信息擦除" style="strokeWidth=2;html=1;shape=mxgraph.flowchart.terminator;whiteSpace=wrap;" vertex="1" parent="1">
          <mxGeometry x="150" y="362" width="100" height="60" as="geometry" />
        </mxCell>
        <mxCell id="BGNOBT85ynpQFOA_O_nM-37" style="edgeStyle=orthogonalEdgeStyle;rounded=0;orthogonalLoop=1;jettySize=auto;html=1;exitX=0.5;exitY=1;exitDx=0;exitDy=0;exitPerimeter=0;entryX=0.5;entryY=0;entryDx=0;entryDy=0;" edge="1" parent="1" source="BGNOBT85ynpQFOA_O_nM-21" target="BGNOBT85ynpQFOA_O_nM-36">
          <mxGeometry relative="1" as="geometry" />
        </mxCell>
        <mxCell id="BGNOBT85ynpQFOA_O_nM-21" value="图像融合" style="strokeWidth=2;html=1;shape=mxgraph.flowchart.terminator;whiteSpace=wrap;" vertex="1" parent="1">
          <mxGeometry x="360" y="362" width="100" height="60" as="geometry" />
        </mxCell>
        <mxCell id="BGNOBT85ynpQFOA_O_nM-35" style="edgeStyle=orthogonalEdgeStyle;rounded=0;orthogonalLoop=1;jettySize=auto;html=1;exitX=0.5;exitY=1;exitDx=0;exitDy=0;exitPerimeter=0;entryX=0.5;entryY=0;entryDx=0;entryDy=0;" edge="1" parent="1" source="BGNOBT85ynpQFOA_O_nM-31" target="BGNOBT85ynpQFOA_O_nM-34">
          <mxGeometry relative="1" as="geometry" />
        </mxCell>
        <mxCell id="BGNOBT85ynpQFOA_O_nM-31" value="风格转移生成网络" style="strokeWidth=2;html=1;shape=mxgraph.flowchart.terminator;whiteSpace=wrap;" vertex="1" parent="1">
          <mxGeometry x="550" y="350" width="100" height="60" as="geometry" />
        </mxCell>
        <mxCell id="BGNOBT85ynpQFOA_O_nM-34" value="1.季节风格转移&lt;br&gt;2.光照风格转移" style="rounded=1;whiteSpace=wrap;html=1;absoluteArcSize=1;arcSize=14;strokeWidth=2;" vertex="1" parent="1">
          <mxGeometry x="560" y="440" width="80" height="60" as="geometry" />
        </mxCell>
        <mxCell id="BGNOBT85ynpQFOA_O_nM-36" value="1.混式融合&lt;br&gt;2.先验目标&lt;br&gt;融合" style="rounded=1;whiteSpace=wrap;html=1;absoluteArcSize=1;arcSize=14;strokeWidth=2;" vertex="1" parent="1">
          <mxGeometry x="370" y="450" width="80" height="60" as="geometry" />
        </mxCell>
        <mxCell id="BGNOBT85ynpQFOA_O_nM-38" value="1.噪声添加&lt;br&gt;2.饱和度和对比度调整" style="rounded=1;whiteSpace=wrap;html=1;absoluteArcSize=1;arcSize=14;strokeWidth=2;" vertex="1" parent="1">
          <mxGeometry x="266" y="450" width="80" height="60" as="geometry" />
        </mxCell>
        <mxCell id="BGNOBT85ynpQFOA_O_nM-40" value="1.图像块擦除&lt;br&gt;2.图像块掩码&lt;br&gt;覆盖" style="rounded=1;whiteSpace=wrap;html=1;absoluteArcSize=1;arcSize=14;strokeWidth=2;" vertex="1" parent="1">
          <mxGeometry x="160" y="450" width="80" height="60" as="geometry" />
        </mxCell>
        <mxCell id="BGNOBT85ynpQFOA_O_nM-42" value="1.旋转&lt;br&gt;2.缩放尺度&lt;br&gt;" style="rounded=1;whiteSpace=wrap;html=1;absoluteArcSize=1;arcSize=14;strokeWidth=2;" vertex="1" parent="1">
          <mxGeometry x="51" y="450" width="80" height="60" as="geometry" />
        </mxCell>
      </root>
    </mxGraphModel>
  </diagram>
</mxfile>
